<svg width="905" height="94" viewBox="0 0 905 94" fill="none" xmlns="http://www.w3.org/2000/svg">
<g filter="url(#filter0_d_146_240)">
<path d="M619 17H901V17C901 55.1076 870.108 86 832 86H619V17Z" fill="#BC6211"/>
</g>
<g filter="url(#filter1_d_146_240)">
<path d="M4 17H286V86H73C34.8923 86 4 55.1076 4 17V17Z" fill="#BC6211"/>
</g>
<g filter="url(#filter2_d_146_240)">
<rect width="769" height="47" transform="matrix(1 0 0 -1 68 64)" fill="#071532"/>
</g>
<g filter="url(#filter3_d_146_240)">
<rect x="377" width="151" height="74" rx="37" fill="#BC6211"/>
</g>
<g filter="url(#filter4_d_146_240)">
<path d="M431.016 18.8293C430.688 20.0705 430.362 21.3078 430.038 22.5412C430.029 22.385 422.566 17.5912 422.543 16.7103C422.474 15.6476 429.589 7.25981 429.623 7.28638C429.938 8.51343 430.251 9.74791 430.565 10.9898C430.554 10.9771 426.383 15.0897 426.349 15.6465C426.301 16.1322 431.013 18.7708 431.016 18.8293Z" fill="#E08F3A"/>
<path d="M440.733 12.9187C440.733 13.7082 436.45 21.4031 435.796 21.5466C435.129 21.6146 430.326 15.6774 430.576 14.7454C430.814 13.7539 434.729 5.6637 435.464 5.81885C436.146 5.90493 440.728 12.0706 440.733 12.9187ZM435.552 10.3895C435.278 10.2588 433.412 13.6753 433.435 14.1089C433.459 14.5424 435.475 17.01 435.691 16.9856C435.906 16.9611 437.746 13.7656 437.816 13.3193C437.897 12.8294 435.824 10.5074 435.552 10.3895ZM436.449 13.5393C436.423 13.7061 435.731 14.9091 435.65 14.9208C435.569 14.9325 434.808 13.9941 434.8 13.8326C434.791 13.671 435.494 12.3905 435.597 12.4405C435.7 12.4904 436.479 13.3576 436.449 13.5393Z" fill="#E08F3A"/>
<path d="M449.854 16.0291C449.826 17.3631 449.797 18.6964 449.769 20.0291C449.764 19.9494 442.022 20.8707 441.922 20.6975C441.731 20.2342 441.366 4.82202 441.365 4.82308C442.31 4.73806 443.256 4.6697 444.204 4.61798C444.204 4.61798 444.439 15.9303 444.533 16.1056C444.687 16.3532 449.852 15.9908 449.854 16.0291Z" fill="#E08F3A"/>
<path d="M453.642 19.9898C452.671 19.9806 451.702 19.9834 450.732 19.9983L450.648 4.46501C451.613 4.41541 452.577 4.38212 453.541 4.36511C453.576 9.57369 453.609 14.7819 453.642 19.9898Z" fill="#E08F3A"/>
<path d="M462.609 16.4C462.599 16.9005 458.784 20.3553 458.456 20.3659C458.126 20.3341 454.797 17.1779 454.792 17.197C455.231 16.2165 455.672 15.2392 456.115 14.2651C456.115 14.2587 458.347 16.3809 458.437 16.4882C458.485 16.5392 459.094 15.8856 459.165 15.7804C459.26 15.6338 454.605 9.06214 454.596 8.53717C454.596 7.9612 458.149 3.94531 458.534 4.00056C458.92 4.01013 462.194 7.3374 462.189 7.35121C461.73 8.21199 461.273 9.07418 460.818 9.93779C460.818 9.93779 458.97 7.84005 458.818 7.77629C458.666 7.71253 457.94 8.73271 457.939 8.91018C457.952 9.06108 462.631 15.857 462.609 16.4Z" fill="#E08F3A"/>
<path d="M470.934 18.3777C470.904 19.502 470.872 20.6263 470.84 21.7506C470.852 21.6667 463.047 20.773 462.881 20.2533C462.723 19.6369 465.711 13.0717 465.716 13.0993C465.724 13.0993 463.071 6.42244 463.073 5.73064C463.095 4.91874 471.209 6.09301 471.192 6.21097C471.207 7.40118 471.22 8.59103 471.233 9.78053C471.233 9.74865 466.918 8.88469 466.817 9.13654C466.764 9.26194 468.674 13.1748 468.73 13.5669C468.801 14.0026 466.746 17.5881 466.711 17.7613C466.654 18.0642 470.938 18.349 470.934 18.3777Z" fill="#E08F3A"/>
<path d="M481.557 16.6986C481.536 17.35 477.037 22.8972 476.373 22.8728C475.727 22.775 471.272 14.994 471.556 14.0897C471.855 13.1333 476.112 7.03665 476.806 7.62113C477.472 8.11102 481.595 15.9855 481.557 16.6986ZM476.669 12.0451C476.41 11.7805 474.416 14.2597 474.416 14.7018C474.416 15.1439 476.276 18.3861 476.487 18.4361C476.697 18.486 478.642 16.2044 478.733 15.8272C478.835 15.4181 476.932 12.2959 476.671 12.043L476.669 12.0451ZM477.392 15.4574C477.358 15.604 476.627 16.4627 476.542 16.4446C476.457 16.4265 475.764 15.196 475.764 15.0344C475.764 14.8729 476.513 13.9441 476.614 14.0387C476.715 14.1333 477.428 15.299 477.394 15.4574H477.392Z" fill="#E08F3A"/>
<path d="M449.748 27.911C449.631 29.1044 445.03 32.3148 445.037 32.3318C445.02 30.7186 445.155 23.0864 445.155 23.0864C445.16 23.0492 449.863 26.6666 449.748 27.911ZM446.38 26.4647L446.367 29.2585C446.367 29.2585 447.739 28.131 447.871 27.9036C448.003 27.6761 446.38 26.4604 446.38 26.4647Z" fill="#E08F3A"/>
<path d="M454.043 29.7899C454.039 30.4629 454.034 31.1359 454.029 31.809C454.029 31.7888 449.547 31.8908 449.452 31.5709C449.357 31.2511 450.993 27.1682 450.996 27.1703C450.999 27.1725 449.421 23.4988 449.418 23.0949C449.418 22.6645 454.047 22.4903 454.047 22.5179C454.069 23.2264 454.091 23.9327 454.113 24.6369C454.113 24.6295 451.634 24.5923 451.581 24.7378C451.551 24.8165 452.685 26.928 452.725 27.1576C452.771 27.4137 451.635 29.7187 451.619 29.8143C451.583 30.0141 454.043 29.7899 454.043 29.7899Z" fill="#E08F3A"/>
<path d="M459.412 29.5316C459.387 30.2974 459.361 31.0636 459.335 31.8302C459.335 31.8089 454.92 31.9365 454.862 31.7972C454.756 31.5167 454.697 22.4955 454.697 22.4955C455.233 22.5296 455.769 22.5671 456.306 22.6082C456.306 22.6082 456.339 29.1873 456.391 29.2946C456.478 29.4615 459.412 29.522 459.412 29.5316Z" fill="#E08F3A"/>
<path d="M407.701 54.7247C407.572 56.3389 403.959 59.5716 400.313 61.8904C397.995 63.4002 395.548 64.7014 393 65.7788C393.015 62.5907 393.618 46.9055 393.605 46.8406C396.015 47.1773 398.364 47.8572 400.581 48.8597C404.127 50.3634 407.837 53.1211 407.701 54.7247ZM397.226 52.966C397.226 55.0276 397.223 57.0849 397.218 59.138C397.218 59.1859 401.46 56.1264 401.851 55.4697C402.228 54.7725 397.205 52.8724 397.226 52.966Z" fill="#E08F3A"/>
<path d="M421.476 58.7661C421.536 60.7725 421.595 62.7785 421.654 64.7841C421.654 64.7894 407.371 65.0965 407.049 64.2432C406.745 63.5907 411.56 52.4187 411.55 52.2348C411.539 52.051 406.315 43.3295 406.306 42.5028C406.179 41.2945 420.601 36.8833 420.685 37.0958C420.832 39.1836 420.98 41.2757 421.128 43.372C421.111 43.3189 413.28 44.761 413.148 45.2275C413.055 45.3964 416.842 50.7535 417.003 51.4644C417.177 52.2497 413.814 59.1264 413.772 59.3346C413.674 59.8841 421.471 58.764 421.476 58.7661Z" fill="#E08F3A"/>
<path d="M437.259 56.5812C437.259 57.6343 430.551 64.7639 429.957 64.7044C429.363 64.6449 423.108 59.3909 423.104 59.4568C423.837 57.6942 424.572 55.9043 425.309 54.0871C425.309 54.0541 429.494 57.4409 429.666 57.6386C429.756 57.7257 430.82 56.4144 430.941 56.2029C431.096 55.7629 422.227 45.1509 422.186 44.423C422.135 43.5261 428.301 35.0246 429.017 34.8663C429.712 34.6644 435.924 39.5421 435.924 39.6122C435.136 41.3982 434.354 43.1744 433.578 44.9405C433.578 44.9161 430.071 41.6781 429.787 41.6345C429.507 41.5654 428.254 43.6844 428.264 43.9969C428.291 44.117 437.265 55.4122 437.259 56.5812Z" fill="#E08F3A"/>
<path d="M444.434 64.2145C442.671 64.2187 440.909 64.2247 439.146 64.2325C438.944 54.4431 438.74 44.6564 438.535 34.8726C440.311 34.6559 442.092 34.4702 443.876 34.3158C444.065 44.2774 444.251 54.2436 444.434 64.2145Z" fill="#E08F3A"/>
<path d="M460.843 57.9882C460.807 60.217 460.772 62.4455 460.737 64.6736C460.737 64.6672 446.429 64.9212 446.12 63.7894C445.789 62.6895 451.023 49.1828 451.052 49.1785C451.076 49.1498 445.907 36.9151 445.871 35.6144C445.848 34.0523 461.086 33.6697 461.08 33.8982C461.131 36.241 461.18 38.5836 461.229 40.9257C461.229 40.8747 453.136 40.5761 452.96 41.0872C452.872 41.3444 456.537 48.4389 456.655 49.204C456.791 50.0542 453.097 57.7055 453.053 58.0413C452.936 58.6949 460.842 57.9701 460.843 57.9882Z" fill="#E08F3A"/>
<path d="M478.264 60.7491C478.264 60.7363 475.66 63.9265 474.744 65.3186C474.751 65.3633 469.828 58.052 467.589 54.1881C467.589 58.7938 467.613 63.0084 467.613 63.0084C466.06 62.9198 464.507 62.833 462.953 62.748C462.953 62.748 463.256 33.4519 463.774 33.403C464.624 33.2298 478.796 42.4411 478.672 44.1117C478.638 44.9183 472.776 51.9926 472.828 52.7704C472.864 53.186 478.278 60.8097 478.264 60.7491ZM471.926 45.4666C471.942 45.0415 468.142 42.1383 467.725 42.5442C467.63 42.6367 467.597 46.2944 467.589 50.491C469.146 48.5431 471.918 45.7652 471.926 45.4666Z" fill="#E08F3A"/>
<path d="M494.096 45.253C493.494 46.7315 492.888 48.2423 492.28 49.7853C492.28 49.7853 490.421 47.881 488.848 46.2785C488.552 52.4527 488.256 58.6386 487.96 64.8361C486.45 64.8227 484.94 64.8103 483.429 64.799C483.649 58.4795 483.87 52.1597 484.091 45.8396C482.548 46.8831 480.903 48.1413 480.903 48.1424C480.373 46.2678 479.842 44.3752 479.309 42.4645C479.309 42.456 482.144 40.168 484.338 38.7727L484.345 38.6048L484.515 38.6601C485.651 37.9342 486.585 37.4443 486.818 37.4996C487.524 37.7313 494.113 45.3348 494.096 45.253Z" fill="#E08F3A"/>
<path d="M512.123 55.7767C512.129 56.2316 510.21 58.1274 508.041 60.359C505.89 62.5206 503.498 65.02 502.886 65.0349C502.265 65.071 499.91 62.5641 497.799 59.5248C495.687 56.5398 493.825 53.0212 494.104 52.2986C494.382 51.5759 496.484 48.5792 498.611 46.2742C500.748 43.9076 502.908 42.2243 503.509 42.6908C504.083 43.1159 506.193 46.4867 508.206 49.5101C510.211 52.5951 512.117 55.3219 512.123 55.7767ZM503.311 49.1764C502.865 48.7088 499.294 52.3985 499.279 53.1434C499.264 53.8884 502.653 58.5631 503.05 58.5493C503.446 58.5355 506.923 55.1041 507.059 54.6439C507.214 54.1253 503.767 49.6249 503.311 49.1764ZM504.647 54.1466C504.59 54.3496 503.283 55.6344 503.136 55.6227C502.988 55.611 501.72 53.8331 501.721 53.5823C501.722 53.3315 503.061 51.95 503.233 52.0945C503.406 52.2391 504.708 53.9266 504.647 54.1466Z" fill="#E08F3A"/>
<path d="M465.494 32.251C464.077 32.1214 462.655 32.0134 461.227 31.9269C461.252 29.6995 461.277 27.4725 461.302 25.2458C461.322 23.3819 462.308 21.9441 463.503 22.0578C464.697 22.1747 465.637 23.7868 465.605 25.6294C465.569 27.8363 465.532 30.0435 465.494 32.251Z" fill="#E08F3A"/>
<path d="M473.391 33.1905C471.984 32.9822 470.573 32.7948 469.158 32.6283L469.295 26.0864C469.332 24.2607 470.325 22.9238 471.506 23.1279C472.687 23.3319 473.602 24.9706 473.556 26.7601C473.5 28.9061 473.445 31.0495 473.391 33.1905Z" fill="#E08F3A"/>
<path d="M481.192 34.5815C479.806 34.2939 478.413 34.0271 477.014 33.7813L477.199 27.4658C477.25 25.7017 478.238 24.4849 479.399 24.7761C480.561 25.0662 481.45 26.7123 481.394 28.4243C481.327 30.4774 481.26 32.5298 481.192 34.5815Z" fill="#E08F3A"/>
<path d="M427.318 33.9226C425.922 34.1756 424.531 34.4504 423.146 34.7473L422.942 28.6209C422.885 26.9206 423.771 25.2724 424.93 24.9727C426.09 24.673 427.077 25.876 427.129 27.6294C427.193 29.7286 427.256 31.8263 427.318 33.9226Z" fill="#E08F3A"/>
<path d="M435.164 32.7282C433.751 32.9025 432.341 33.098 430.935 33.3148C430.88 31.1788 430.823 29.0432 430.765 26.9079C430.718 25.1247 431.63 23.485 432.81 23.2714C433.99 23.0588 434.982 24.384 435.022 26.2054C435.068 28.3825 435.116 30.5568 435.164 32.7282Z" fill="#E08F3A"/>
<path d="M443.089 31.9779C441.665 32.0728 440.244 32.189 438.825 32.3264C438.785 30.126 438.746 27.9251 438.708 25.724C438.674 23.8855 439.612 22.2702 440.805 22.1438C441.998 22.0173 442.985 23.4466 443.008 25.3074C443.035 27.5305 443.062 29.754 443.089 31.9779Z" fill="#E08F3A"/>
</g>
<defs>
<filter id="filter0_d_146_240" x="615" y="17" width="290" height="77" filterUnits="userSpaceOnUse" color-interpolation-filters="sRGB">
<feFlood flood-opacity="0" result="BackgroundImageFix"/>
<feColorMatrix in="SourceAlpha" type="matrix" values="0 0 0 0 0 0 0 0 0 0 0 0 0 0 0 0 0 0 127 0" result="hardAlpha"/>
<feOffset dy="4"/>
<feGaussianBlur stdDeviation="2"/>
<feComposite in2="hardAlpha" operator="out"/>
<feColorMatrix type="matrix" values="0 0 0 0 0 0 0 0 0 0 0 0 0 0 0 0 0 0 0.25 0"/>
<feBlend mode="normal" in2="BackgroundImageFix" result="effect1_dropShadow_146_240"/>
<feBlend mode="normal" in="SourceGraphic" in2="effect1_dropShadow_146_240" result="shape"/>
</filter>
<filter id="filter1_d_146_240" x="0" y="17" width="290" height="77" filterUnits="userSpaceOnUse" color-interpolation-filters="sRGB">
<feFlood flood-opacity="0" result="BackgroundImageFix"/>
<feColorMatrix in="SourceAlpha" type="matrix" values="0 0 0 0 0 0 0 0 0 0 0 0 0 0 0 0 0 0 127 0" result="hardAlpha"/>
<feOffset dy="4"/>
<feGaussianBlur stdDeviation="2"/>
<feComposite in2="hardAlpha" operator="out"/>
<feColorMatrix type="matrix" values="0 0 0 0 0 0 0 0 0 0 0 0 0 0 0 0 0 0 0.25 0"/>
<feBlend mode="normal" in2="BackgroundImageFix" result="effect1_dropShadow_146_240"/>
<feBlend mode="normal" in="SourceGraphic" in2="effect1_dropShadow_146_240" result="shape"/>
</filter>
<filter id="filter2_d_146_240" x="64" y="17" width="777" height="55" filterUnits="userSpaceOnUse" color-interpolation-filters="sRGB">
<feFlood flood-opacity="0" result="BackgroundImageFix"/>
<feColorMatrix in="SourceAlpha" type="matrix" values="0 0 0 0 0 0 0 0 0 0 0 0 0 0 0 0 0 0 127 0" result="hardAlpha"/>
<feOffset dy="4"/>
<feGaussianBlur stdDeviation="2"/>
<feComposite in2="hardAlpha" operator="out"/>
<feColorMatrix type="matrix" values="0 0 0 0 0 0 0 0 0 0 0 0 0 0 0 0 0 0 0.25 0"/>
<feBlend mode="normal" in2="BackgroundImageFix" result="effect1_dropShadow_146_240"/>
<feBlend mode="normal" in="SourceGraphic" in2="effect1_dropShadow_146_240" result="shape"/>
</filter>
<filter id="filter3_d_146_240" x="373" y="0" width="159" height="82" filterUnits="userSpaceOnUse" color-interpolation-filters="sRGB">
<feFlood flood-opacity="0" result="BackgroundImageFix"/>
<feColorMatrix in="SourceAlpha" type="matrix" values="0 0 0 0 0 0 0 0 0 0 0 0 0 0 0 0 0 0 127 0" result="hardAlpha"/>
<feOffset dy="4"/>
<feGaussianBlur stdDeviation="2"/>
<feComposite in2="hardAlpha" operator="out"/>
<feColorMatrix type="matrix" values="0 0 0 0 0 0 0 0 0 0 0 0 0 0 0 0 0 0 0.25 0"/>
<feBlend mode="normal" in2="BackgroundImageFix" result="effect1_dropShadow_146_240"/>
<feBlend mode="normal" in="SourceGraphic" in2="effect1_dropShadow_146_240" result="shape"/>
</filter>
<filter id="filter4_d_146_240" x="389" y="4" width="127.123" height="69.7787" filterUnits="userSpaceOnUse" color-interpolation-filters="sRGB">
<feFlood flood-opacity="0" result="BackgroundImageFix"/>
<feColorMatrix in="SourceAlpha" type="matrix" values="0 0 0 0 0 0 0 0 0 0 0 0 0 0 0 0 0 0 127 0" result="hardAlpha"/>
<feOffset dy="4"/>
<feGaussianBlur stdDeviation="2"/>
<feComposite in2="hardAlpha" operator="out"/>
<feColorMatrix type="matrix" values="0 0 0 0 0 0 0 0 0 0 0 0 0 0 0 0 0 0 0.25 0"/>
<feBlend mode="normal" in2="BackgroundImageFix" result="effect1_dropShadow_146_240"/>
<feBlend mode="normal" in="SourceGraphic" in2="effect1_dropShadow_146_240" result="shape"/>
</filter>
</defs>
</svg>
